<svg xmlns="http://www.w3.org/2000/svg" width="150" height="50" viewBox="0 0 928 144">
    <g fill="#191A19" fill-rule="evenodd">
        <path d="M96.3 85l-.7 2-26.1-7 .5-2s.42-1.313.42-1.324c3.607-11.53 12.584-20.705 24.018-24.619A38.164 38.164 0 0 1 106.848 50C127.919 50 145 67.013 145 88c0 8.002-2.48 15.423-6.72 21.546l-.07.103C131.314 119.53 119.841 126 106.848 126H94.945l21.198-32.333c1.084-1.676 1.606-3.523 1.606-5.667 0-5.993-4.883-10.857-10.9-10.857a10.902 10.902 0 0 0-10.1 6.764c0 .005-.449 1.093-.449 1.093zm-3.31 14.361a50.688 50.688 0 0 1-10.421 11.948C73.837 118.612 62.604 123 50.349 123 22.542 123 0 100.391 0 72.5S22.541 22 50.35 22c17.853 0 33.537 9.322 42.48 23.376L65.73 52.512A25.004 25.004 0 0 0 50.35 47.25c-13.907 0-25.175 11.307-25.175 25.25 0 13.948 11.268 25.25 25.175 25.25 5.88 0 11.288-2.02 15.572-5.409l27.068 7.02zM168.038 75.339c0-7.55 1.593-14.283 4.78-20.2 3.188-5.916 7.632-10.526 13.333-13.829 5.701-3.303 12.164-4.954 19.388-4.954 8.853 0 16.431 2.395 22.735 7.187 6.303 4.79 10.517 11.324 12.642 19.6h-19.973c-1.558-3.122-3.683-5.499-6.374-7.132-2.691-1.634-5.772-2.45-9.242-2.45-5.595 0-10.128 1.978-13.599 5.934-3.47 3.957-5.205 9.238-5.205 15.844s1.735 11.905 5.205 15.898c3.47 3.993 8.004 5.989 13.599 5.989 3.47 0 6.55-.835 9.242-2.504 2.691-1.67 4.816-4.066 6.374-7.187h19.973c-2.125 8.276-6.34 14.79-12.642 19.546-6.304 4.755-13.882 7.132-22.735 7.132-7.224 0-13.687-1.651-19.388-4.954-5.701-3.303-10.145-7.895-13.333-13.775-3.187-5.88-4.78-12.595-4.78-20.145zm436.214 0c0-7.55 1.593-14.283 4.78-20.2 3.188-5.916 7.632-10.526 13.333-13.829 5.701-3.303 12.164-4.954 19.388-4.954 8.853 0 16.431 2.395 22.735 7.187 6.303 4.79 10.517 11.324 12.642 19.6h-19.973c-1.558-3.122-3.682-5.499-6.374-7.132-2.691-1.634-5.772-2.45-9.242-2.45-5.595 0-10.128 1.978-13.599 5.934-3.47 3.957-5.205 9.238-5.205 15.844s1.735 11.905 5.205 15.898c3.47 3.993 8.004 5.989 13.599 5.989 3.47 0 6.55-.835 9.242-2.504 2.692-1.67 4.816-4.066 6.374-7.187h19.973c-2.125 8.276-6.339 14.79-12.642 19.546-6.304 4.755-13.882 7.132-22.735 7.132-7.224 0-13.687-1.651-19.388-4.954-5.701-3.303-10.145-7.895-13.332-13.775-3.188-5.88-4.781-12.595-4.781-20.145zm-351.514 7.84c0-6.243 1.151-11.724 3.453-16.443 2.302-4.718 5.436-8.348 9.402-10.889 3.966-2.54 8.392-3.811 13.28-3.811 4.178 0 7.843.871 10.995 2.613 3.151 1.743 5.577 4.03 7.277 6.86v-8.602h18.166v60.762h-18.166v-8.603c-1.77 2.831-4.232 5.118-7.383 6.86-3.152 1.743-6.817 2.614-10.996 2.614-4.816 0-9.207-1.289-13.173-3.866-3.966-2.577-7.1-6.243-9.402-10.998-2.302-4.755-3.453-10.254-3.453-16.497zm44.407.109c0-4.646-1.257-8.312-3.771-10.998-2.515-2.686-5.578-4.03-9.19-4.03-3.612 0-6.675 1.326-9.19 3.975-2.514 2.65-3.77 6.298-3.77 10.944 0 4.646 1.256 8.33 3.77 11.053 2.515 2.722 5.578 4.083 9.19 4.083 3.612 0 6.675-1.343 9.19-4.029 2.514-2.686 3.77-6.352 3.77-10.998zm55.63-19.492c2.124-3.557 4.798-6.37 8.02-8.439 3.223-2.069 6.746-3.103 10.57-3.103v19.71h-4.992c-4.533 0-7.932.997-10.199 2.994-2.266 1.996-3.4 5.499-3.4 10.508v28.203h-18.166V52.907h18.167v10.89zm51.52-2.286c1.699-2.832 4.142-5.118 7.33-6.86 3.186-1.743 6.834-2.614 10.942-2.614 4.887 0 9.313 1.27 13.28 3.811 3.965 2.541 7.1 6.17 9.401 10.89 2.302 4.718 3.453 10.199 3.453 16.442s-1.151 11.742-3.453 16.497c-2.302 4.755-5.436 8.421-9.402 10.998-3.966 2.577-8.392 3.866-13.28 3.866-4.178 0-7.825-.853-10.942-2.56-3.116-1.705-5.56-3.974-7.33-6.805v8.494h-18.166v-80.58h18.166v28.42zm25.92 21.669c0-4.646-1.256-8.294-3.77-10.944-2.515-2.65-5.613-3.974-9.296-3.974-3.612 0-6.675 1.343-9.19 4.029-2.514 2.686-3.771 6.352-3.771 10.998 0 4.646 1.257 8.312 3.771 10.998 2.515 2.686 5.578 4.029 9.19 4.029 3.612 0 6.692-1.361 9.242-4.083 2.55-2.723 3.825-6.407 3.825-11.053zm59.384 31.36c-5.808 0-11.03-1.27-15.67-3.81-4.639-2.541-8.286-6.17-10.942-10.89-2.656-4.718-3.984-10.235-3.984-16.551 0-6.243 1.346-11.742 4.037-16.497 2.691-4.755 6.374-8.403 11.049-10.944 4.674-2.54 9.915-3.811 15.723-3.811 5.807 0 11.048 1.27 15.722 3.811 4.675 2.541 8.358 6.189 11.049 10.944 2.691 4.755 4.037 10.254 4.037 16.497s-1.363 11.742-4.09 16.497c-2.727 4.755-6.445 8.403-11.155 10.944-4.71 2.54-9.968 3.81-15.776 3.81zm0-16.006c3.47 0 6.427-1.325 8.87-3.975 2.444-2.65 3.666-6.406 3.666-11.27s-1.186-8.62-3.559-11.27c-2.373-2.65-5.294-3.975-8.764-3.975-3.542 0-6.48 1.307-8.818 3.92-2.337 2.614-3.506 6.388-3.506 11.325 0 4.864 1.151 8.62 3.453 11.27 2.302 2.65 5.188 3.975 8.658 3.975zm79.464-46.28c6.941 0 12.483 2.306 16.626 6.915 4.144 4.61 6.215 10.944 6.215 19.002v35.499h-18.06V80.675c0-4.066-1.027-7.224-3.08-9.474-2.055-2.25-4.817-3.376-8.287-3.376-3.47 0-6.233 1.126-8.287 3.376-2.053 2.25-3.08 5.408-3.08 9.474v32.994h-18.167V52.907h18.167v8.058c1.841-2.686 4.32-4.81 7.436-6.37 3.116-1.56 6.622-2.341 10.517-2.341zm138.51-19.164v80.58h-18.166v-80.58h18.166zm42.886 81.45c-5.807 0-11.03-1.27-15.67-3.81-4.639-2.541-8.286-6.17-10.942-10.89-2.656-4.718-3.984-10.235-3.984-16.551 0-6.243 1.346-11.742 4.037-16.497 2.692-4.755 6.374-8.403 11.049-10.944 4.674-2.54 9.915-3.811 15.723-3.811 5.807 0 11.048 1.27 15.723 3.811 4.674 2.541 8.357 6.189 11.048 10.944 2.691 4.755 4.037 10.254 4.037 16.497s-1.363 11.742-4.09 16.497c-2.727 4.755-6.445 8.403-11.155 10.944-4.71 2.54-9.968 3.81-15.776 3.81zm0-16.006c3.47 0 6.428-1.325 8.87-3.975 2.444-2.65 3.666-6.406 3.666-11.27s-1.186-8.62-3.559-11.27c-2.372-2.65-5.294-3.975-8.764-3.975-3.541 0-6.48 1.307-8.818 3.92-2.337 2.614-3.506 6.388-3.506 11.325 0 4.864 1.151 8.62 3.453 11.27 2.302 2.65 5.188 3.975 8.658 3.975zm101.88-45.626v60.762h-18.166v-8.276c-1.841 2.686-4.338 4.846-7.49 6.479-3.151 1.633-6.64 2.45-10.464 2.45-4.533 0-8.534-1.034-12.004-3.103-3.47-2.07-6.162-5.064-8.074-8.984-1.913-3.92-2.869-8.53-2.869-13.83V52.908h18.06v32.994c0 4.066 1.027 7.223 3.081 9.474 2.054 2.25 4.816 3.376 8.287 3.376 3.54 0 6.338-1.126 8.392-3.376 2.054-2.25 3.081-5.408 3.081-9.474V52.907h18.166zm13.264 30.922c0-6.243 1.15-11.724 3.453-16.442 2.301-4.719 5.435-8.349 9.402-10.89 3.966-2.54 8.392-3.81 13.279-3.81 3.895 0 7.454.834 10.677 2.504 3.222 1.67 5.754 3.92 7.596 6.751V33.74h18.166v80.58H910.01v-8.711c-1.7 2.903-4.126 5.226-7.278 6.969-3.151 1.742-6.816 2.613-10.995 2.613-4.887 0-9.313-1.288-13.28-3.866-3.966-2.577-7.1-6.243-9.401-10.998-2.302-4.755-3.453-10.253-3.453-16.497zm44.407.11c0-4.647-1.258-8.313-3.772-10.999s-5.577-4.029-9.19-4.029c-3.611 0-6.674 1.325-9.189 3.975-2.514 2.65-3.771 6.297-3.771 10.943s1.257 8.33 3.771 11.053c2.515 2.722 5.578 4.083 9.19 4.083 3.612 0 6.675-1.343 9.19-4.029 2.513-2.686 3.77-6.352 3.77-10.998z"/>
    </g>
</svg>
